<?xml version="1.0" encoding="UTF-8"?>
<!DOCTYPE svg PUBLIC "-//W3C//DTD SVG 1.1//EN" "http://www.w3.org/Graphics/SVG/1.1/DTD/svg11.dtd">
<svg version="1.1" xmlns="http://www.w3.org/2000/svg" xmlns:xlink="http://www.w3.org/1999/xlink" x="0" y="0" width="200" height="47.75" viewBox="0, 0, 400, 95.5">
  <g id="Layer_1">
    <path d="M138.968,1.5 L138.968,94 L1.468,94 L1.468,1.5 L138.968,1.5 z M25.218,72.75 L17.048,80.919 L25.306,89.178 L33.476,81.008 L25.218,72.75 z M105.391,69.136 L93.968,69.136 L93.968,80.772 L105.391,80.772 L105.391,69.136 z M122.891,69.136 L111.468,69.136 L111.468,80.772 L122.891,80.772 L122.891,69.136 z M35.784,62.183 L27.707,70.261 L35.934,78.489 L44.012,70.411 L35.784,62.183 z M14.718,62.206 L6.512,70.411 L14.567,78.467 L22.773,70.261 L14.718,62.206 z M25.306,51.5 L17.137,59.669 L25.306,67.839 L33.476,59.669 L25.306,51.5 z M101.468,6.5 L38.968,6.5 L38.968,51.5 L101.468,51.5 L101.468,6.5 z" fill="#FFFFFF"/>
    <path d="M165.436,46.041 Q169.891,46.041 172.096,49.506 L172.096,44.961 Q172.096,43.161 172.006,42.756 Q171.781,41.361 170.746,41.361 Q170.386,41.361 169.734,41.496 Q169.081,41.631 168.721,41.631 Q167.056,41.631 167.056,40.191 Q167.056,38.706 169.306,38.706 Q169.666,38.706 170.611,38.796 Q172.051,38.931 172.096,38.931 Q172.501,38.931 173.266,38.841 Q174.031,38.751 174.436,38.751 Q175.696,38.751 175.696,40.551 L175.696,41.046 Q175.651,41.181 175.606,43.431 Q175.606,43.701 175.471,46.896 Q175.381,49.146 175.381,50.316 L175.381,54.726 L175.471,62.241 Q175.516,65.211 175.741,65.931 Q175.966,66.651 176.821,66.651 Q177.406,66.651 177.721,66.561 Q178.441,66.471 178.711,66.471 Q180.376,66.471 180.376,67.956 Q180.376,69.486 178.351,69.486 Q177.901,69.486 176.979,69.374 Q176.056,69.261 175.606,69.261 Q175.471,69.261 174.571,69.351 Q174.031,69.486 173.626,69.486 Q172.411,69.486 172.411,67.866 L172.411,67.641 L172.456,66.876 Q170.071,70.071 165.526,70.071 Q160.936,70.071 158.146,66.741 Q155.356,63.411 155.356,58.011 Q155.356,52.566 158.101,49.304 Q160.846,46.041 165.436,46.041 z M171.826,61.926 Q172.006,60.441 172.006,58.101 Q172.006,55.086 171.781,54.006 Q171.376,51.756 169.846,50.496 Q168.046,49.011 165.706,49.011 Q162.556,49.011 160.779,51.396 Q159.001,53.781 159.001,57.921 Q159.001,62.196 160.846,64.649 Q162.691,67.101 165.886,67.101 Q168.316,67.101 169.936,65.684 Q171.556,64.266 171.826,61.926 z" fill="#FFFFFF"/>
    <path d="M192.706,70.071 Q187.981,70.071 185.146,66.809 Q182.311,63.546 182.311,58.056 Q182.311,52.566 185.169,49.304 Q188.026,46.041 192.841,46.041 Q197.746,46.041 200.581,49.236 Q203.416,52.431 203.416,57.921 Q203.416,63.411 200.491,66.741 Q197.566,70.071 192.706,70.071 z M192.931,49.011 Q189.781,49.011 187.981,51.216 Q186.181,53.421 186.001,57.471 Q186.001,57.471 186.001,58.056 Q186.001,62.286 187.779,64.694 Q189.556,67.101 192.751,67.101 Q196.036,67.101 197.904,64.694 Q199.771,62.286 199.771,58.011 Q199.771,49.011 192.931,49.011 z" fill="#FFFFFF"/>
    <path d="M217.006,46.041 Q221.461,46.041 223.666,49.506 L223.666,44.961 Q223.666,43.161 223.576,42.756 Q223.351,41.361 222.316,41.361 Q221.956,41.361 221.304,41.496 Q220.651,41.631 220.291,41.631 Q218.626,41.631 218.626,40.191 Q218.626,38.706 220.876,38.706 Q221.236,38.706 222.181,38.796 Q223.621,38.931 223.666,38.931 Q224.071,38.931 224.836,38.841 Q225.601,38.751 226.006,38.751 Q227.266,38.751 227.266,40.551 L227.266,41.046 Q227.221,41.181 227.176,43.431 Q227.176,43.701 227.041,46.896 Q226.951,49.146 226.951,50.316 L226.951,54.726 L227.041,62.241 Q227.086,65.211 227.311,65.931 Q227.536,66.651 228.391,66.651 Q228.976,66.651 229.291,66.561 Q230.011,66.471 230.281,66.471 Q231.946,66.471 231.946,67.956 Q231.946,69.486 229.921,69.486 Q229.471,69.486 228.549,69.374 Q227.626,69.261 227.176,69.261 Q227.041,69.261 226.141,69.351 Q225.601,69.486 225.196,69.486 Q223.981,69.486 223.981,67.866 L223.981,67.641 L224.026,66.876 Q221.641,70.071 217.096,70.071 Q212.506,70.071 209.716,66.741 Q206.926,63.411 206.926,58.011 Q206.926,52.566 209.671,49.304 Q212.416,46.041 217.006,46.041 z M223.396,61.926 Q223.576,60.441 223.576,58.101 Q223.576,55.086 223.351,54.006 Q222.946,51.756 221.416,50.496 Q219.616,49.011 217.276,49.011 Q214.126,49.011 212.349,51.396 Q210.571,53.781 210.571,57.921 Q210.571,62.196 212.416,64.649 Q214.261,67.101 217.456,67.101 Q219.886,67.101 221.506,65.684 Q223.126,64.266 223.396,61.926 z" fill="#FFFFFF"/>
    <path d="M244.276,70.071 Q239.551,70.071 236.716,66.809 Q233.881,63.546 233.881,58.056 Q233.881,52.566 236.739,49.304 Q239.596,46.041 244.411,46.041 Q249.316,46.041 252.151,49.236 Q254.986,52.431 254.986,57.921 Q254.986,63.411 252.061,66.741 Q249.136,70.071 244.276,70.071 z M244.501,49.011 Q241.351,49.011 239.551,51.216 Q237.751,53.421 237.571,57.471 Q237.571,57.471 237.571,58.056 Q237.571,62.286 239.349,64.694 Q241.126,67.101 244.321,67.101 Q247.606,67.101 249.474,64.694 Q251.341,62.286 251.341,58.011 Q251.341,49.011 244.501,49.011 z" fill="#FFFFFF"/>
    <path d="M265.516,50.496 L265.561,64.491 Q265.606,66.786 266.776,66.786 Q267.046,66.786 267.901,66.561 Q268.441,66.471 268.621,66.471 Q270.106,66.471 270.106,68.001 Q270.106,69.486 268.261,69.486 Q267.541,69.486 265.966,69.306 Q264.391,69.126 263.536,69.126 Q262.816,69.126 261.376,69.306 Q259.936,69.486 259.261,69.486 L259.036,69.486 Q257.146,69.486 257.146,67.866 Q257.146,66.471 258.676,66.471 Q258.766,66.471 258.991,66.471 Q259.261,66.516 259.396,66.516 Q260.521,66.696 260.701,66.696 Q261.511,66.696 261.714,65.999 Q261.916,65.301 261.961,62.376 L262.006,59.226 L262.141,52.251 L262.096,44.241 Q262.051,42.891 261.961,42.441 Q261.646,41.406 260.701,41.406 Q260.566,41.406 259.531,41.586 Q259.036,41.676 258.721,41.676 Q257.191,41.676 257.191,40.236 Q257.191,38.751 258.991,38.751 Q259.486,38.751 259.846,38.796 L260.926,38.931 Q261.646,39.021 262.141,39.021 Q262.591,39.021 263.491,38.864 Q264.391,38.706 264.841,38.706 Q265.876,38.706 265.876,40.011 Q265.876,40.461 265.831,40.686 Q265.516,44.151 265.516,50.496 z" fill="#FFFFFF"/>
    <path d="M291.751,69.891 Q288.061,69.891 287.206,66.696 Q284.911,70.071 280.006,70.071 Q276.361,70.071 274.179,68.271 Q271.996,66.471 271.996,63.456 Q271.996,59.721 275.191,57.966 Q276.406,57.291 277.284,57.089 Q278.161,56.886 280.816,56.571 Q284.596,56.166 285.744,55.446 Q286.891,54.726 286.891,52.791 Q286.891,50.946 285.609,49.889 Q284.326,48.831 282.031,48.831 Q280.006,48.831 278.251,49.956 Q277.576,50.406 277.576,50.901 Q277.576,51.081 277.981,51.351 Q278.611,51.801 278.611,52.881 Q278.611,53.781 277.959,54.366 Q277.306,54.951 276.316,54.951 Q275.146,54.951 274.359,54.141 Q273.571,53.331 273.571,52.161 Q273.571,49.641 276.069,47.841 Q278.566,46.041 282.121,46.041 Q290.311,46.041 290.311,53.916 L290.311,63.006 Q290.311,65.166 290.401,65.571 Q290.671,67.146 291.931,67.146 Q293.506,67.146 293.506,64.266 L293.506,62.061 Q293.506,60.621 294.901,60.621 Q296.386,60.621 296.386,62.781 L296.386,63.006 L296.341,65.571 Q296.251,69.891 291.751,69.891 z M286.756,60.936 L286.801,57.741 Q285.811,58.641 284.709,59.001 Q283.606,59.361 280.771,59.631 Q275.641,60.126 275.641,63.411 Q275.641,65.121 276.879,66.111 Q278.116,67.101 280.231,67.101 Q283.246,67.101 284.979,65.459 Q286.711,63.816 286.756,60.936 z" fill="#FFFFFF"/>
    <path d="M303.631,40.596 Q303.271,44.331 303.226,49.461 Q304.666,47.571 306.151,46.806 Q307.636,46.041 309.886,46.041 Q314.386,46.041 317.041,49.191 Q319.696,52.341 319.696,57.561 Q319.696,63.276 316.884,66.674 Q314.071,70.071 309.301,70.071 Q304.666,70.071 302.596,66.606 Q302.776,67.911 302.776,68.046 Q302.776,69.666 301.201,69.666 Q299.626,69.666 299.626,67.416 Q299.626,66.786 299.671,66.471 Q299.671,65.436 299.716,64.266 L299.851,60.801 L299.941,56.256 L299.851,44.241 Q299.806,42.576 299.514,41.991 Q299.221,41.406 298.501,41.406 Q298.366,41.406 297.331,41.586 Q296.836,41.676 296.476,41.676 Q294.946,41.676 294.946,40.236 Q294.946,38.751 296.746,38.751 Q297.286,38.751 297.646,38.796 L298.726,38.931 Q299.446,39.021 299.896,39.021 Q300.391,39.021 301.291,38.864 Q302.191,38.706 302.641,38.706 Q303.631,38.706 303.631,39.966 z M303.586,53.646 Q303.271,55.086 303.271,57.696 Q303.271,62.151 303.991,63.816 Q305.386,67.101 309.301,67.101 Q312.406,67.101 314.229,64.649 Q316.051,62.196 316.051,58.056 Q316.051,53.826 314.319,51.419 Q312.586,49.011 309.571,49.011 Q307.456,49.011 305.746,50.339 Q304.036,51.666 303.586,53.646 z" fill="#FFFFFF"/>
    <path d="M332.656,46.041 Q335.671,46.041 337.696,47.616 L337.696,47.436 Q337.696,45.771 339.136,45.771 Q340.621,45.771 340.621,47.211 Q340.621,47.481 340.531,48.561 Q340.351,49.461 340.351,50.361 Q340.351,50.901 340.509,51.936 Q340.666,52.971 340.666,53.511 Q340.666,55.221 339.181,55.221 Q337.741,55.221 337.696,53.781 L337.651,52.296 Q337.606,50.946 336.099,49.979 Q334.591,49.011 332.566,49.011 Q330.496,49.011 329.101,50.069 Q327.706,51.126 327.706,52.701 Q327.706,55.581 331.666,56.121 L334.276,56.481 Q341.926,57.516 341.926,62.826 Q341.926,66.066 339.451,68.069 Q336.976,70.071 332.971,70.071 Q329.236,70.071 326.491,67.956 Q326.536,68.406 326.536,68.811 Q326.536,70.431 325.006,70.431 Q323.341,70.431 323.341,68.586 Q323.341,68.901 323.611,66.246 Q323.701,65.616 323.701,64.986 Q323.701,63.906 323.521,62.961 Q323.341,62.016 323.341,61.476 Q323.341,59.901 324.781,59.901 Q325.726,59.901 325.974,60.351 Q326.221,60.801 326.266,62.736 Q326.311,64.671 328.291,65.886 Q330.271,67.101 333.331,67.101 Q335.536,67.101 336.976,65.976 Q338.416,64.851 338.416,63.141 Q338.416,60.081 333.556,59.586 Q328.921,59.091 326.491,57.764 Q324.061,56.436 324.061,53.106 Q324.061,49.956 326.446,47.999 Q328.831,46.041 332.656,46.041 z" fill="#FFFFFF"/>
    <path d="M349.666,70.071 Q348.496,70.071 347.686,69.239 Q346.876,68.406 346.876,67.236 Q346.876,66.066 347.686,65.234 Q348.496,64.401 349.666,64.401 Q350.836,64.401 351.646,65.234 Q352.456,66.066 352.456,67.236 Q352.456,68.406 351.646,69.239 Q350.836,70.071 349.666,70.071 z" fill="#FFFFFF"/>
    <path d="M364.876,56.256 L364.876,62.106 Q364.876,64.356 364.921,64.761 Q365.146,66.786 366.136,66.786 Q366.361,66.786 367.261,66.561 Q367.486,66.471 367.936,66.471 Q369.646,66.471 369.646,67.956 Q369.646,68.586 369.084,69.036 Q368.521,69.486 367.666,69.486 Q366.946,69.486 365.484,69.284 Q364.021,69.081 363.301,69.081 Q362.131,69.081 360.691,69.261 Q358.936,69.486 358.351,69.486 Q356.551,69.486 356.551,67.956 Q356.551,66.471 358.081,66.471 Q358.441,66.471 359.139,66.606 Q359.836,66.741 360.196,66.741 Q361.276,66.741 361.501,63.861 Q361.501,63.681 361.501,59.946 L361.501,56.256 Q361.501,52.521 361.501,52.341 Q361.276,49.506 360.151,49.506 Q359.791,49.506 359.139,49.664 Q358.486,49.821 358.171,49.821 Q356.551,49.821 356.551,48.381 Q356.551,46.851 358.531,46.851 Q359.386,46.851 359.746,46.896 Q361.186,47.076 361.591,47.076 Q361.951,47.076 362.694,46.964 Q363.436,46.851 363.796,46.851 Q365.101,46.851 365.101,48.606 Q365.101,48.786 365.056,49.146 Q365.011,49.506 365.011,49.686 Q364.966,50.046 364.921,52.476 Q364.876,54.321 364.876,56.256 z M362.536,44.466 Q361.501,44.466 360.759,43.724 Q360.016,42.981 360.016,41.946 Q360.016,40.911 360.759,40.191 Q361.501,39.471 362.536,39.471 Q363.571,39.471 364.314,40.191 Q365.056,40.911 365.056,41.946 Q365.056,42.981 364.314,43.724 Q363.571,44.466 362.536,44.466 z" fill="#FFFFFF"/>
    <path d="M381.886,70.071 Q377.161,70.071 374.326,66.809 Q371.491,63.546 371.491,58.056 Q371.491,52.566 374.349,49.304 Q377.206,46.041 382.021,46.041 Q386.926,46.041 389.761,49.236 Q392.596,52.431 392.596,57.921 Q392.596,63.411 389.671,66.741 Q386.746,70.071 381.886,70.071 z M382.111,49.011 Q378.961,49.011 377.161,51.216 Q375.361,53.421 375.181,57.471 Q375.181,57.471 375.181,58.056 Q375.181,62.286 376.959,64.694 Q378.736,67.101 381.931,67.101 Q385.216,67.101 387.084,64.694 Q388.951,62.286 388.951,58.011 Q388.951,49.011 382.111,49.011 z" fill="#FFFFFF"/>
  </g>
</svg>
