<?xml version="1.0" standalone="no"?>
<!DOCTYPE svg PUBLIC "-//W3C//DTD SVG 20010904//EN"
 "http://www.w3.org/TR/2001/REC-SVG-20010904/DTD/svg10.dtd">
<svg version="1.0" xmlns="http://www.w3.org/2000/svg"
 width="16.000000pt" height="16.000000pt" viewBox="0 0 16.000000 16.000000"
 preserveAspectRatio="xMidYMid meet">
<metadata>
Created by potrace 1.11, written by Peter Selinger 2001-2013
</metadata>
<g transform="translate(0.000000,16.000000) scale(0.002286,-0.002286)"
fill="#000000" stroke="none">
<path d="M4 5845 c-2 -5 -3 -1065 -2 -2355 l3 -2345 3498 0 3497 0 -2 2355 -3
2355 -3494 0 c-2320 0 -3495 -3 -3497 -10z m5086 -1390 l0 -1145 -1590 0
-1590 0 0 1145 0 1145 1590 0 1590 0 0 -1145z m-3460 -1560 c0 0 -94 -94 -209
-209 l-208 -208 -208 207 -207 208 208 208 208 208 208 -207 c114 -114 208
-207 208 -207z m-769 -319 c101 -100 192 -192 203 -204 18 -21 17 -22 -188
-228 l-207 -207 -30 29 c-27 26 -369 369 -377 378 -3 4 406 416 413 416 1 0
85 -83 186 -184z m1096 -18 c111 -112 203 -206 203 -211 0 -8 -397 -407 -405
-407 -3 0 -99 93 -212 206 l-206 205 29 31 c62 65 378 378 383 378 3 0 96 -91
208 -202z m3333 -443 l0 -295 -290 0 -290 0 0 295 0 295 290 0 290 0 0 -295z
m890 238 c1 -32 2 -165 3 -295 l2 -238 -292 0 -293 0 0 295 0 295 290 0 290 0
0 -57z m-4758 -755 l-207 -208 -208 208 c-114 114 -206 211 -204 215 1 5 93
100 202 211 l200 202 212 -210 213 -211 -208 -207z"/>
</g>
</svg>
